<?xml version="1.0" encoding="UTF-8" ?>
<!DOCTYPE svg PUBLIC "-//W3C//DTD SVG 1.1//EN" "http://www.w3.org/Graphics/SVG/1.1/DTD/svg11.dtd">
<svg width="256pt" height="256pt" viewBox="0 0 256 256" version="1.1" xmlns="http://www.w3.org/2000/svg">
<g id="#020201ff">
<path fill="#020201" opacity="1.00" d=" M 30.51 66.40 C 63.09 52.09 95.65 37.76 128.20 23.42 C 160.82 37.69 193.37 52.11 225.99 66.39 C 226.01 74.76 225.99 83.13 226.00 91.49 C 160.83 91.49 95.67 91.49 30.50 91.49 C 30.51 83.13 30.50 74.76 30.51 66.40 Z" />
<path fill="#020201" opacity="1.00" d=" M 45.27 105.65 C 42.91 102.27 45.75 96.99 49.98 97.53 C 60.32 97.50 70.66 97.44 80.99 97.56 C 84.98 97.30 87.40 102.33 85.31 105.52 C 84.13 107.88 81.23 107.85 79.00 108.31 C 79.00 133.10 79.00 157.90 79.00 182.69 C 81.25 183.14 84.18 183.13 85.35 185.54 C 87.37 188.72 84.96 193.68 81.01 193.44 C 70.68 193.56 60.34 193.50 50.00 193.47 C 45.77 194.02 42.92 188.76 45.25 185.37 C 46.48 183.09 49.32 183.13 51.54 182.69 C 51.48 157.90 51.48 133.10 51.54 108.31 C 49.33 107.86 46.50 107.92 45.27 105.65 Z" />
<path fill="#020201" opacity="1.00" d=" M 108.28 105.68 C 105.89 102.30 108.75 96.97 113.00 97.53 C 123.32 97.50 133.65 97.44 143.97 97.56 C 147.93 97.29 150.38 102.24 148.36 105.45 C 147.20 107.86 144.26 107.85 142.00 108.31 C 142.00 133.10 142.00 157.90 142.00 182.69 C 144.27 183.14 147.21 183.14 148.36 185.57 C 150.37 188.77 147.93 193.70 143.98 193.44 C 134.34 193.61 124.68 193.41 115.03 193.53 C 113.19 193.41 111.11 193.71 109.55 192.53 C 107.09 190.79 106.75 186.90 108.75 184.69 C 110.16 183.01 112.57 183.13 114.54 182.69 C 114.48 157.90 114.48 133.10 114.54 108.31 C 112.34 107.86 109.53 107.92 108.28 105.68 Z" />
<path fill="#020201" opacity="1.00" d=" M 172.23 105.60 C 169.93 102.21 172.79 96.98 177.00 97.53 C 187.33 97.50 197.67 97.44 207.99 97.56 C 211.97 97.30 214.40 102.32 212.32 105.50 C 211.15 107.88 208.23 107.85 206.00 108.31 C 206.00 133.10 206.00 157.90 206.00 182.69 C 208.24 183.14 211.16 183.13 212.33 185.51 C 214.39 188.69 211.97 193.69 208.01 193.44 C 198.34 193.62 188.67 193.41 179.00 193.53 C 177.12 193.41 174.99 193.71 173.43 192.44 C 170.65 190.38 170.84 185.60 173.80 183.79 C 175.29 183.11 176.94 182.98 178.54 182.69 C 178.48 157.90 178.48 133.11 178.54 108.31 C 176.31 107.87 173.46 107.90 172.23 105.60 Z" />
<path fill="#020201" opacity="1.00" d=" M 33.17 199.96 C 36.36 199.11 39.72 199.60 42.99 199.49 C 102.01 199.52 161.04 199.51 220.06 199.50 C 222.49 199.26 225.28 200.43 225.82 203.03 C 226.29 206.20 226.65 210.81 222.95 212.20 C 219.68 212.77 216.35 212.45 213.06 212.50 C 154.04 212.48 95.01 212.52 35.99 212.48 C 29.41 213.21 28.47 202.64 33.17 199.96 Z" />
<path fill="#020201" opacity="1.00" d=" M 20.16 218.96 C 23.36 218.11 26.73 218.60 30.01 218.49 C 97.66 218.51 165.32 218.51 232.97 218.50 C 235.72 218.14 238.91 219.82 238.94 222.87 C 239.02 226.09 239.92 230.63 236.45 232.47 C 233.76 233.39 230.82 232.92 228.03 233.02 C 159.68 232.96 91.32 233.03 22.97 232.99 C 20.08 233.35 17.30 231.00 17.51 228.01 C 17.43 224.92 16.77 220.58 20.16 218.96 Z" />
</g>
</svg>
