<?xml version="1.0" encoding="UTF-8" ?>
<!DOCTYPE svg PUBLIC "-//W3C//DTD SVG 1.1//EN" "http://www.w3.org/Graphics/SVG/1.1/DTD/svg11.dtd">
<svg width="512pt" height="512pt" viewBox="0 0 512 512" version="1.1" xmlns="http://www.w3.org/2000/svg">
<g id="#010101ff">
<path fill="#010101" opacity="1.00" d=" M 64.03 149.29 C 120.93 113.79 177.74 78.14 234.67 42.70 C 234.67 170.67 234.63 298.65 234.69 426.62 C 248.89 426.70 263.10 426.63 277.31 426.64 C 277.34 327.10 277.31 227.56 277.32 128.02 C 334.24 163.55 391.15 199.10 448.03 234.70 C 448.01 298.70 447.98 362.70 448.05 426.70 C 455.13 426.55 462.23 426.70 469.32 426.68 C 469.37 440.90 469.29 455.12 469.35 469.35 C 327.12 469.29 184.90 469.39 42.68 469.30 C 42.63 455.09 42.63 440.88 42.68 426.67 C 49.78 426.63 56.88 426.62 63.98 426.68 C 64.03 334.21 63.92 241.75 64.03 149.29 M 106.69 170.69 C 106.64 184.91 106.66 199.12 106.68 213.33 C 135.14 213.26 163.61 213.43 192.07 213.25 C 191.87 199.06 192.04 184.87 192.00 170.69 C 163.56 170.65 135.12 170.64 106.69 170.69 M 106.57 256.12 C 106.76 270.30 106.65 284.48 106.63 298.66 C 135.08 298.65 163.54 298.63 191.99 298.66 C 191.98 284.44 191.98 270.22 192.00 255.99 C 163.52 256.11 135.04 255.85 106.57 256.12 M 320.02 256.01 C 320.04 270.22 319.94 284.43 320.06 298.64 C 348.49 298.62 376.93 298.74 405.36 298.58 C 405.27 284.41 405.36 270.24 405.32 256.07 C 376.88 255.94 348.45 256.05 320.02 256.01 M 106.66 341.34 C 106.66 355.56 106.66 369.78 106.67 384.00 C 135.11 383.97 163.56 383.98 192.00 384.00 C 192.00 369.78 191.95 355.56 192.02 341.34 C 163.57 341.33 135.12 341.33 106.66 341.34 M 320.00 341.36 C 320.00 355.57 320.03 369.79 320.00 384.00 C 348.44 383.98 376.88 383.97 405.32 384.00 C 405.32 369.78 405.33 355.55 405.32 341.32 C 376.88 341.37 348.44 341.29 320.00 341.36 Z" />
</g>
</svg>
