<?xml version="1.0" encoding="UTF-8" ?>
<!DOCTYPE svg PUBLIC "-//W3C//DTD SVG 1.1//EN" "http://www.w3.org/Graphics/SVG/1.1/DTD/svg11.dtd">
<svg width="400pt" height="400pt" viewBox="0 0 400 400" version="1.1" xmlns="http://www.w3.org/2000/svg">
<g id="#000000ff">
<path fill="#000000" opacity="1.00" d=" M 98.34 0.00 L 105.47 0.00 C 124.78 0.75 143.92 7.01 159.53 18.49 C 178.76 32.19 192.44 53.20 197.68 76.19 C 185.89 93.46 178.16 113.58 176.34 134.48 C 139.30 140.65 104.95 161.58 82.82 191.95 C 81.12 191.73 79.41 191.58 77.75 191.15 C 56.50 185.52 37.33 172.39 24.36 154.65 C 9.33 134.34 2.61 107.91 6.58 82.93 C 9.78 60.21 21.65 38.95 38.95 23.94 C 55.30 9.51 76.62 1.19 98.34 0.00 M 58.01 44.98 C 55.58 48.74 56.25 53.69 58.63 57.29 C 65.62 68.89 72.70 80.44 79.73 92.03 C 75.33 92.68 70.34 91.05 66.36 93.45 C 62.14 96.23 63.40 103.51 68.39 104.54 C 74.60 105.03 80.86 104.65 87.09 104.73 C 89.07 107.32 90.81 110.30 90.39 113.70 C 85.67 114.75 80.75 113.95 75.95 114.20 C 72.38 114.48 67.82 113.03 65.30 116.41 C 62.00 119.75 64.41 126.09 69.03 126.55 C 74.01 127.06 79.04 126.69 84.04 126.79 C 86.15 126.94 88.56 126.23 90.37 127.64 C 90.22 133.10 90.32 138.58 90.29 144.05 C 90.22 148.78 93.43 153.44 98.04 154.73 C 103.98 156.67 111.95 154.78 114.34 148.45 C 116.62 141.48 115.00 134.01 115.56 126.83 C 121.71 126.72 127.85 126.87 134.00 126.77 C 136.48 126.74 139.43 126.12 140.73 123.74 C 143.15 120.13 140.56 114.38 136.12 114.21 C 129.23 114.10 122.33 114.33 115.44 114.11 C 115.14 110.72 115.84 106.77 118.87 104.79 C 124.89 104.54 130.94 105.10 136.93 104.53 C 142.54 103.64 143.23 94.93 138.10 92.82 C 134.17 91.50 129.94 92.57 125.89 91.96 C 132.87 79.99 140.32 68.30 147.36 56.37 C 149.76 52.29 149.58 46.35 145.92 43.04 C 142.59 39.85 137.64 38.59 133.14 39.21 C 129.13 39.82 126.16 43.03 124.34 46.45 C 117.24 60.01 110.10 73.54 103.01 87.10 C 102.67 86.70 102.00 85.89 101.66 85.49 C 94.45 71.97 87.50 58.29 80.20 44.82 C 75.72 36.69 62.70 37.56 58.01 44.98 Z" />
<path fill="#000000" opacity="1.00" d=" M 284.07 49.61 C 300.53 47.15 317.59 49.51 333.07 55.53 C 355.19 64.26 373.83 81.39 384.35 102.72 C 394.05 122.14 397.03 144.87 392.38 166.09 C 386.25 195.27 365.84 220.96 338.84 233.59 C 335.32 223.34 330.86 213.44 325.35 204.12 C 331.20 203.51 337.83 201.42 340.57 195.71 C 342.49 191.10 342.05 184.59 337.52 181.63 C 334.36 179.57 330.41 180.29 326.96 181.00 C 320.46 182.51 313.56 181.76 307.29 179.78 C 302.72 174.99 298.01 170.34 293.01 166.00 C 293.70 162.24 295.04 158.32 293.56 154.56 C 299.69 153.55 306.25 155.59 312.17 153.22 C 318.10 150.87 317.29 140.70 310.99 139.36 C 303.59 138.64 295.87 139.85 288.62 138.42 C 284.43 131.54 281.12 122.24 285.80 114.77 C 291.18 106.77 302.67 105.24 311.10 108.78 C 316.29 111.10 318.13 116.79 320.50 121.47 C 324.48 129.84 339.08 127.35 340.67 118.41 C 342.03 112.40 339.43 106.04 335.56 101.46 C 328.31 92.84 316.95 89.02 306.04 88.02 C 294.74 86.87 282.71 88.66 273.21 95.20 C 265.89 100.11 260.36 108.03 259.33 116.88 C 259.15 122.24 258.74 127.85 260.75 132.95 C 261.45 134.87 262.70 136.59 263.02 138.64 C 259.33 138.72 255.38 139.24 253.26 142.66 C 236.66 136.06 218.90 132.92 201.09 132.44 C 203.94 111.07 214.32 90.82 229.90 75.93 C 244.56 61.73 263.82 52.29 284.07 49.61 Z" />
<path fill="#000000" opacity="1.00" d=" M 120.99 186.15 C 140.43 169.37 165.36 159.06 190.98 157.22 C 213.67 155.44 236.84 160.36 256.91 171.09 C 280.27 183.40 299.36 203.63 310.38 227.62 C 317.48 242.71 321.08 259.33 321.61 275.96 C 322.37 310.68 307.43 345.34 281.54 368.51 C 260.66 387.62 232.90 398.84 204.65 400.00 L 195.41 400.00 C 182.30 399.38 169.27 396.81 157.00 392.12 C 131.21 382.45 109.04 363.60 95.14 339.84 C 81.16 316.04 75.39 287.34 79.89 260.05 C 84.03 231.52 99.10 204.86 120.99 186.15 M 194.55 192.74 C 194.12 196.74 194.66 200.79 194.17 204.80 C 181.23 205.19 167.86 209.26 158.34 218.35 C 144.43 231.22 142.14 255.56 155.11 269.86 C 165.11 280.45 179.62 284.86 193.48 287.73 C 193.70 287.97 194.13 288.46 194.35 288.70 C 194.43 302.30 194.39 315.91 194.36 329.52 C 187.53 329.66 180.00 327.93 175.37 322.54 C 170.51 317.29 170.69 309.34 165.95 304.02 C 161.97 300.45 156.02 300.12 151.07 301.45 C 146.20 302.84 143.38 308.10 143.62 312.95 C 143.37 323.98 150.63 333.65 159.22 339.85 C 169.41 347.27 182.09 349.62 194.38 350.68 C 194.47 355.00 194.24 359.32 194.48 363.64 C 194.63 367.21 198.42 370.64 202.03 369.45 C 204.21 368.50 205.96 366.40 206.26 364.01 C 206.52 359.50 206.06 354.98 206.46 350.48 C 218.90 349.32 231.92 346.89 242.02 339.03 C 249.96 333.13 255.14 323.77 256.08 313.94 C 257.44 302.38 255.24 289.73 247.02 281.01 C 238.55 272.30 226.60 268.28 215.08 265.48 C 212.14 264.55 208.91 264.50 206.20 262.97 C 206.50 250.41 206.17 237.84 206.36 225.28 C 212.93 225.43 219.69 227.79 224.12 232.81 C 228.19 236.47 230.61 241.62 235.03 244.92 C 240.82 249.47 250.61 246.80 253.20 239.87 C 255.40 235.17 253.93 229.75 251.58 225.42 C 247.36 218.56 240.23 214.23 233.04 211.03 C 224.75 207.58 215.95 205.26 206.96 204.77 C 204.73 199.78 208.80 192.21 203.50 188.29 C 200.09 185.42 194.94 188.79 194.55 192.74 Z" />
<path fill="#000000" opacity="1.00" d=" M 174.84 233.97 C 179.45 228.00 187.18 225.68 194.43 225.21 C 194.33 237.28 194.32 249.35 194.43 261.42 C 187.89 259.77 180.92 257.91 176.02 252.97 C 171.12 248.03 170.34 239.42 174.84 233.97 Z" />
<path fill="#000000" opacity="1.00" d=" M 206.39 290.04 C 214.08 291.75 222.48 293.89 227.77 300.18 C 232.64 306.54 232.12 316.71 226.07 322.15 C 221.00 327.46 213.39 329.08 206.36 329.87 C 206.52 316.60 206.46 303.32 206.39 290.04 Z" />
</g>
</svg>
