<?xml version="1.0" encoding="UTF-8" ?>
<!DOCTYPE svg PUBLIC "-//W3C//DTD SVG 1.1//EN" "http://www.w3.org/Graphics/SVG/1.1/DTD/svg11.dtd">
<svg width="512pt" height="512pt" viewBox="0 0 512 512" version="1.1" xmlns="http://www.w3.org/2000/svg">
<g id="#010101ff">
<path fill="#010101" opacity="1.00" d=" M 169.29 85.36 C 226.53 85.28 283.76 85.34 340.99 85.33 C 358.21 85.25 375.44 90.49 389.58 100.34 C 407.22 112.35 420.02 131.23 424.60 152.08 C 427.42 163.84 426.51 176.01 426.66 187.99 C 426.64 214.95 426.71 241.91 426.63 268.87 C 435.05 260.21 443.71 251.78 452.20 243.18 C 455.00 240.22 458.18 237.44 462.12 236.12 C 470.48 233.00 480.68 235.89 486.08 243.03 C 491.29 249.41 492.10 258.87 488.22 266.10 C 486.36 269.78 483.17 272.50 480.32 275.39 C 460.51 295.22 440.67 315.02 420.86 334.87 C 412.97 342.37 399.21 343.90 391.02 336.02 C 369.58 314.77 348.33 293.31 326.92 272.01 C 317.69 263.95 317.76 248.11 327.20 240.25 C 333.28 234.72 342.70 233.28 350.14 236.80 C 354.59 238.71 357.76 242.51 361.11 245.86 C 368.75 253.46 376.36 261.10 383.99 268.71 C 383.98 235.79 384.00 202.86 383.98 169.94 C 383.84 156.82 377.16 144.01 366.55 136.32 C 359.50 131.07 350.78 128.13 341.99 128.02 C 260.40 127.99 178.80 128.05 97.20 127.99 C 111.70 102.57 139.93 85.53 169.29 85.36 Z" />
<path fill="#010101" opacity="1.00" d=" M 101.62 171.38 C 109.99 169.50 118.94 173.27 124.46 179.61 C 144.76 199.96 165.10 220.25 185.41 240.58 C 188.72 243.90 191.18 248.19 191.75 252.89 C 192.96 260.57 189.50 268.72 183.19 273.24 C 176.70 278.06 167.37 278.69 160.35 274.67 C 157.82 273.30 155.74 271.28 153.72 269.27 C 145.20 260.63 136.55 252.11 128.01 243.49 C 128.02 271.68 127.99 299.87 128.02 328.05 C 128.23 336.70 127.10 345.61 129.94 353.97 C 135.05 371.15 151.96 383.91 169.90 383.98 C 251.57 383.98 333.23 384.02 414.90 383.96 C 400.30 409.22 372.36 426.40 343.02 426.62 C 286.02 426.72 229.01 426.62 172.01 426.67 C 161.84 426.74 151.66 425.16 142.08 421.73 C 114.91 412.23 93.44 388.12 87.39 359.94 C 84.70 348.84 85.40 337.35 85.33 326.03 C 85.27 298.59 85.41 271.15 85.26 243.71 C 75.81 252.76 66.75 262.21 57.40 271.37 C 52.37 276.28 44.76 278.48 37.91 276.78 C 31.45 275.37 25.84 270.74 23.19 264.68 C 19.91 257.67 21.03 248.89 25.88 242.87 C 27.65 240.67 29.74 238.77 31.73 236.77 C 51.56 216.93 71.40 197.09 91.24 177.25 C 94.05 174.36 97.66 172.23 101.62 171.38 Z" />
</g>
</svg>
